# xmcd
#
# Track frame offsets:
#	182
#	10552
#	19580
#	32127
#	43547
#	53722
#	64247
#	77140
#	89605
#	100400
#	112477
#	122335
#	131857
#	143830
#	154975
#	168140
#	181020
#	190917
#	201632
#	213625
#	226755
#	239035
#	249942
#	262375
#	272105
#	279317
#	287702
#	296037
#	306842
#	316720
#	326510
#
# Disc length: 4487 seconds
#
# Revision: 1
# Processed by: cddbd v1.4PL0 Copyright (c) Steve Scherf et al.
# Submitted via: audiograbber 1.80
#
DISCID=d111851f
DTITLE=rusty draper - pink cadillac
DYEAR=1900
DGENRE=
TTITLE0=freight train 1957
TTITLE1=in the middle of the house 1956
TTITLE2=the shifting, wispering sands 1955
TTITLE3=angry 1952
TTITLE4=just because 1952
TTITLE5=big mamou 1953
TTITLE6=lighthouse 1953
TTITLE7=native dancer 1953
TTITLE8=no help wanted 1953
TTITLE9=lonesome song 1953
TTITLE10=knock on wood 1954
TTITLE11=muskrat ramble 1954
TTITLE12=melangoly baby 1954
TTITLE13=the train with the rumba beat 1954
TTITLE14=mule you lazy mule 1955
TTITLE15=september song 1955
TTITLE16=seventeen 1955
TTITLE17=the ballad of davy crockett 1956
TTITLE18=forty two 1956
TTITLE19=i'm mad 1956
TTITLE20=pink cadillac 1956
TTITLE21=tiger lilly 1956
TTITLE22=wabash connonball 1957
TTITLE23=buzz buzz buzz 1957
TTITLE24=good golly 1957
TTITLE25=no huhu 1957
TTITLE26=seven come eleven 1957
TTITLE27=cicken-pickin' hawk 1958
TTITLE28=hip monky 1958
TTITLE29=shoppin' around 1958
TTITLE30=mule skinner blues 1960
EXTD=
EXTT0=
EXTT1=
EXTT2=
EXTT3=
EXTT4=
EXTT5=
EXTT6=
EXTT7=
EXTT8=
EXTT9=
EXTT10=
EXTT11=
EXTT12=
EXTT13=
EXTT14=
EXTT15=
EXTT16=
EXTT17=
EXTT18=
EXTT19=
EXTT20=
EXTT21=
EXTT22=
EXTT23=
EXTT24=
EXTT25=
EXTT26=
EXTT27=
EXTT28=
EXTT29=
EXTT30=
PLAYORDER=
